<?xml version="1.0"?>
<!-- Generated by SVGo -->
<svg width="340" height="120"
     xmlns="http://www.w3.org/2000/svg"
     xmlns:xlink="http://www.w3.org/1999/xlink">
<g  >
<path d="M34.929656637592586 29.289515447364025 C45.704766980727356 28.681908473359446, 61.78844638248591 34.09330742555879, 70.78844274389908 41.8100037027853 C79.78843910531226 49.52669998001181, 85.7506519281578 69.22469372785396, 88.92963480607165 75.58969311072308 C92.1086176839855 81.95469249359219, 89.70688914383044 79.26494885178717, 89.86234001138219 79.99999999999999 M37.56093333085844 30.82808281856049 C48.98882045531476 30.030840429030665, 65.7430562035139 35.18875353960425, 74.63063924152664 42.84436074188075 C83.51822227953937 50.49996794415725, 88.34781476395895 70.56911948919961, 90.88643155893487 76.76172603221949 C93.4250483539108 82.95433257523936, 90.0330219359743 79.46028767203657, 89.86234001138219 79.99999999999999 M40.52209863399838 80.6012254832656 C39.29272834887375 67.49704075661508, 40.1994756995866 55.82479399509861, 39.323505125062276 28.70294107748769 M39.14634800170597 80.5951948580585 C39.372628615056946 59.869507006625824, 39.328715356816424 40.40046478008887, 39.404557721357136 28.80585740221787 M40.48387072344625 81.07685646673762 C52.87045708625932 81.3666282626448, 65.42395753483179 78.96497366937267, 91.4837557759702 81.64083661145008 M39.22447743170379 80.2396728558849 C52.47971400598815 79.54521677354822, 66.70712327468466 81.06242444700146, 89.23849989947738 79.33390035649539" fill='none' stroke='#ff0080' stroke-width='1' fill-weight='0' />
</g>
<g  >
<path d="M176.22227054752497 33.22459418156757 C180.49294956664698 47.88649263523097, 165.63279951201525 108.5632406618323, 156.24940873258123 113.0258082982377 C146.8660179531472 117.48837593464312, 125.97650634786419 68.83763471637297, 119.92192587092077 60.00000000000002 M176.53769798566407 37.721667647262535 C179.96447090859525 51.9373985168622, 163.8963909228685 111.03320989828568, 154.46042890374463 114.74626529040859 C145.02446688462075 118.4593206825315, 125.67834304305808 69.12437754840145, 119.92192587092077 60.00000000000002 M151.9784002628053 58.92200521278265 C156.5615166476215 51.830188966132035, 164.94123370199918 45.21969472135979, 175.32179916195085 32.45358926121695 M150.35597685691422 59.04098900636794 C159.91632637829252 50.50149506721071, 169.12793673023495 39.77855998067775, 176.56109449154678 33.18410716060704 M149.46705058494388 60.29712500485927 C140.85339821480432 62.01611891393782, 128.8145262719186 61.213295610130785, 119.23971355758052 61.6815313583126 M150.56429102018967 60.74205562211145 C141.8449294658115 60.45270550847889, 135.23730025555085 60.69277900358735, 119.91414998805243 60.80408154099391" fill='none' stroke='#00ff80' stroke-width='1' fill-weight='0' />
</g>
<g  >
<path d="M251.58299407059513 20.86448278852845 C275.516794191052 27.20877322262684, 326.1645708687661 48.976598632184775, 325.9007385236669 62.17844927508182 C325.63690617856776 75.38029991797886, 262.65012308727785 93.7593970841059, 250.00000000000003 100.07558664591072 M257.03688402932346 20.232033938786557 C280.95581294800866 26.63260697622427, 325.6881344389764 49.62150618446235, 324.5153204340892 62.92876496898304 C323.34250642920193 76.23602375350373, 262.4192200723482 93.8844496997561, 250.00000000000003 100.07558664591072" fill='none' stroke='#660066' stroke-width='1' fill-weight='0' />
</g>
</svg>
