<?xml version="1.0"?>
<!-- Generated by SVGo -->
<svg width="400" height="80"
     xmlns="http://www.w3.org/2000/svg"
     xmlns:xlink="http://www.w3.org/1999/xlink">
<g  >
<path d="M32.29749538826352 11.817291206372463 C38.164662431121386 10.036728263269195, 47.00072309285297 11.476543730759962, 52.7742657654533 13.973703385620578 C58.54780843805363 16.47086304048119, 64.42546360864849 21.18415723186067, 66.9387514238655 26.800249135536156 C69.45203923908251 32.41634103921164, 69.43108468211976 41.27639484841861, 67.85399265675537 47.67025480767349 C66.27690063139097 54.06411476692836, 62.40272293630747 61.49599997251915, 57.47619927167911 65.16340889106542 C52.549675607050744 68.83081780961169, 44.836292782657765 70.492322839128, 38.294850668985184 69.67470831895109 C31.7534085553126 68.85709379877419, 22.855249605973604 64.70684294391867, 18.227546589643605 60.257721770004004 C13.599843573313606 55.80860059608933, 10.802406228520068 49.2780829021926, 10.528632571005183 42.97998127546303 C10.254858913490297 36.681879648733464, 12.158470668865728 27.867241943392468, 16.58490464455429 22.4691120096266 C21.01133862024285 17.07098207586073, 32.77223312846591 12.52645433382051, 37.08723642513654 10.591201672867815 C41.40223972180716 8.65594901191512, 42.55067172516199 10.251665147944415, 42.47492442457803 10.857596043910423 M38.24528021531493 11.572003835742311 C44.43811476640147 11.168379597025998, 52.68719772856919 13.426567693355127, 57.89729271707845 16.859606074600507 C63.10738770558771 20.29264445584589, 68.13325854797212 26.0677098824634, 69.50585014637048 32.17023412321459 C70.87844174476884 38.27275836396578, 68.93998853766897 47.63562341057331, 66.13284230746858 53.47475151910764 C63.3256960772682 59.313879627641974, 58.311607792398526 64.79891377479333, 52.66297276516818 67.20500277442059 C47.01433773793783 69.61109177404785, 38.39056610795677 69.68841749084415, 32.241032144086496 67.91128551687116 C26.091498180216224 66.13415354289818, 19.13319458477232 61.661300730853974, 15.765768981946536 56.54221093058272 C12.398343379120753 51.423121130311465, 11.368151784366464 43.394777796931116, 12.036478527131798 37.19674671524365 C12.704805269897133 30.998715633556177, 15.446773992285674 23.845326162704584, 19.775729438538544 19.354024440457895 C24.104684884791414 14.862722718211206, 35.01698575728491 11.616451243365729, 38.01021120464902 10.24893638176351 C41.00343665201313 8.881421520161291, 37.66887151002637 10.693279467067562, 37.73508212272322 11.148935270844579" fill='none' stroke-width='1' fill-weight='0' stroke='#4e9835' />
</g>
<g  >
<path d="M113.62414173765976 10.754073981617214 C101.69430103245828 13.95991406990495, 145.60040248567452 20.623082166086576, 133.71386833876093 14.457249799941245 C121.82733419184736 8.291417433795914, 154.32853437315336 40.564494623732195, 149.2837441784005 29.251571080053203 C144.23895398364763 17.938647536374212, 144.44979022490534 59.965197925484, 148.8482389230195 48.396020430978226 C153.24668762113365 36.82684293647245, 125.12050336454679 70.61061507283455, 136.08839808405804 63.95910356357052 C147.0562928035693 57.30759205430649, 102.85247602770515 66.73951699694948, 115.94455476448573 68.35055495877032 C129.03663350126632 69.96159292059116, 87.72587445927472 50.09957564164941, 96.81216187371629 59.12598967810801 C105.89844928815786 68.15240371456662, 88.04671902819372 28.999078272645377, 88.68569252116103 41.2713128493945 C89.32466601412834 53.54354742614362, 105.08603126132313 12.152334887075854, 94.89524139481438 22.309285947860644 C84.70445152830563 32.466237008645436, 129.05216897194845 7.506993942118465, 119.25806212068727 10.800459667040126 C109.4639552694261 14.093925391961788, 124.34111137422796 13.464354520893641, 124.27756194859789 12.428888773095661 M117.31874123955082 12.302998430450682 C104.7084583671605 13.571033406701039, 148.62725455920054 22.856941919768953, 138.15900802203302 15.957928894684898 C127.69076148486552 9.058915869600842, 151.55824815557335 45.141314696482056, 148.72348085105332 33.00003750570285 C145.8887135465333 20.858760314923643, 141.57707040880345 63.61349844022535, 146.6633099355931 52.38176046702252 C151.74954946238276 41.150022493819684, 121.95874660004436 71.85845499306045, 133.46476227068433 66.69525142531134 C144.9707779413243 61.53204785756224, 99.55400616940574 64.017138951616, 112.1452629236732 67.87137117026982 C124.73651967794066 71.72560338892364, 88.46743767826018 44.5767657004045, 95.69099200788193 55.13255476934989 C102.91454633750368 65.68834383829528, 91.4987256473001 24.55892556257986, 90.47459993480797 36.20400396343366 C89.45047422231583 47.849082364287455, 107.86799556379367 11.445462831127218, 98.76336914535833 20.197319566788483 C89.65874272692298 28.94917630244975, 124.07557548593718 7.438221614453665, 117.78847919011402 9.948433756449859 C111.50138289429086 12.458645898446052, 117.400041536466 13.594222399459337, 117.62465803282781 12.666683140799904" fill='none' fill-weight='0' stroke='#4e9835' stroke-width='1' />
</g>
<g  >
<path d="M200.94504122013453 9.214669565758737 C226.25839727386557 8.098212642847326, 200.5219937817669 -0.04555610614972139, 220.87750030588148 17.320333210665318 C241.23300682999607 34.68622252748035, 227.71520949029616 9.161978134675433, 231.47830100630642 35.2635035409813 C235.2413925223167 61.36502894728716, 241.12379204238005 33.96789753939931, 226.52213757989688 56.47262132012411 C211.9204831174137 78.97734510084891, 234.69562572925182 61.350661837745, 209.57581931258167 69.0205892120685 C184.45601289591153 76.690516586392, 212.95210009478765 77.17969625362606, 188.84242795489166 67.97751238160936 C164.73275581499567 58.77532850959265, 185.87301272750153 77.56156029801019, 173.4113111027377 55.21731340404344 C160.94960947797387 32.87306651007668, 165.41768469573418 60.64610834070612, 170.1498755177459 34.461142040659226 C174.8820663397576 8.276175740612334, 157.0254294442812 32.18965112474351, 180.50959733575527 15.939863953973102 C203.99376522722935 -0.3099232167973085, 186.81665438087754 13.328111520447539, 205.376127354957 10.08646128450361 C223.93560032903645 6.844811048559681, 209.0398808850673 9.621031285887216, 208.34880679687447 11.077388600057208 M208.25340538843034 10.4525912546897 C231.89952392745346 15.328899297465863, 209.88576352624676 -0.08762755226053187, 224.52452684710354 22.275247885274336 C239.16329016796033 44.63812332280921, 231.19581171568652 18.715942224289446, 230.2115503697155 43.996904410992 C229.22728902374448 69.27786659769455, 242.06078066620157 42.80573892184346, 223.04813482814703 60.19669116532817 C204.0354889900925 77.58764340881288, 229.25723476718696 66.1360982726941, 201.6925816126337 70.08333277621907 C174.12792845808042 74.03056727974403, 203.26910412550316 80.95719274521839, 181.70115509631714 66.11754292061562 C160.1332060671311 51.27789309601284, 176.89515484609757 74.55398036351195, 169.34065806885465 47.8238580393149 C161.78616129161173 21.093735715117848, 158.37216489803197 49.82113903306866, 170.36940993045278 26.022359434320045 C182.36665496287358 2.2235798355714245, 161.53906112658163 23.081285126172823, 187.33652561748585 12.125688641191967 C213.13399010839007 1.1700921562111137, 194.98141339584063 9.481472688472323, 209.0656066668091 9.588964706848763 C223.14979993777754 9.696456725225204, 209.80455373529946 10.179849824641657, 208.46281552393853 12.286926668756628" fill='none' stroke='#4e9835' stroke-width='1' fill-weight='0' />
</g>
<g  >
<path d="M275.6323609280714 9.724723542986752 C276.7036354506093 8.835141061973792, 277.0014670827936 9.159138078634635, 278.37605404319964 8.945255394880032 C279.75064100360566 8.73137271112543, 282.38783007358563 8.12250776850929, 283.87988269050766 8.441427440459137 C285.3719353074297 8.760347112408983, 286.1929251119658 10.361850060543118, 287.3283697447317 10.85877342657911 C288.46381437749756 11.3556967926151, 289.6259687416731 11.083855780469635, 290.69255048710284 11.422967636675086 C291.7591322325326 11.762079492880536, 292.43973566631115 12.310216211896037, 293.7278602173102 12.893444563811816 C295.01598476830924 13.476672915727594, 297.4010937317073 14.243958061871753, 298.4212977930971 14.922337748169753 C299.4415018544869 15.600717434467752, 298.89840592605606 16.252544544585724, 299.84908458564877 16.963722681599812 C300.7997632452415 17.6749008186139, 303.00480358369225 18.142851694051064, 304.1253697506535 19.189406570254288 C305.2459359176147 20.235961446457512, 306.01854264797663 22.117268242901076, 306.57248158741606 23.243051938819157 C307.1264205268555 24.368835634737238, 307.07756866491434 24.85364257700805, 307.44900338728996 25.94410874576277 C307.8204381096656 27.03457491451749, 308.2179007422018 28.63804168928105, 308.80108992166987 29.785848951347468 C309.38427910113796 30.933656213413887, 310.57923135439006 31.434694143780064, 310.9481384640985 32.83095231816129 C311.317045573807 34.22721049254251, 310.99101299514757 36.772256686156055, 311.0145325799206 38.16339799763481 C311.0380521646937 39.554539309113565, 311.17448700577006 39.92767437436052, 311.089255972737 41.177800187033824 C311.004024939704 42.42792599970713, 310.6939746196764 44.50492588149809, 310.50314638172256 45.66415287367463 C310.3123181437687 46.82337986585117, 310.271523136074 47.151615067964215, 309.9442865450139 48.13316214009309 C309.61704995395377 49.11470921222197, 309.0547491857648 50.35306064778799, 308.53972683536193 51.55343530644789 C308.02470448495905 52.753809965107784, 307.62849253459956 53.93352945612847, 306.85415244259656 55.335410092052456 C306.07981235059356 56.73729072797644, 304.7771408046963 58.81098905271805, 303.89368628334404 59.96471912199181 C303.0102317619918 61.118449191265576, 302.3288095435313 61.39167708342691, 301.55342531448326 62.25779050769502 C300.77804108543523 63.12390393196313, 300.37584777390254 64.29503834327997, 299.24138090905586 65.16139966760048 C298.1069140442092 66.02776099192099, 296.04593557316764 66.79942221544935, 294.7466241254032 67.45595845361802 C293.4473126776387 68.1124946917867, 292.46261891671446 68.6943760188412, 291.4455122224692 69.10061709661248 C290.4284055282239 69.50685817438377, 289.89245630335154 69.7795010241466, 288.64398395993135 69.8934049202457 C287.39551161651116 70.0073088163448, 285.30031911947344 69.54035321044435, 283.95467816194815 69.78404047320711 C282.60903720442286 70.02772773596988, 281.8151536388002 71.14026837549049, 280.57013821477943 71.35552849682227 C279.32512279075866 71.57078861815405, 277.82560712256407 71.39078863006145, 276.4845856178236 71.07560120119777 C275.14356411308313 70.76041377233409, 273.8345191750805 69.71209838460419, 272.5240091863366 69.46440392364016 C271.21349919759274 69.21670946267614, 269.8350445508423 69.97025417413532, 268.6215256853602 69.58943443541361 C267.4080068198781 69.2086146966919, 266.4492113562784 67.97482800286693, 265.2428959934438 67.17948549130992 C264.03658063060925 66.38414297975291, 262.32962234489776 65.49671157274435, 261.3836335083529 64.81737936607155 C260.437644671808 64.13804715939875, 260.3554599655142 63.926654387254544, 259.56696297417443 63.10349225127316 C258.77846598283463 62.280330115291775, 257.628336847812 61.022249290130404, 256.65265156031404 59.87840655018322 C255.67696627281606 58.73456381023604, 254.61510988495013 57.178289986344005, 253.7128512491865 56.24043581159007 C252.8105926134229 55.30258163683613, 251.84244339487014 55.20649109501411, 251.23909974573232 54.251281501659605 C250.6357560965945 53.2960719083051, 250.46743512218654 51.78341631585676, 250.09278935435958 50.50917825146304 C249.71814358653262 49.23494018706932, 249.08762903340443 47.98128774994581, 248.99122513877052 46.605853115297286 C248.8948212441366 45.230418480648765, 249.42192474462541 43.56047656474297, 249.51436598655616 42.25657044357194 C249.6068072284869 40.952664322400906, 249.42165782497528 40.08651462041936, 249.54587259035495 38.782416388271095 C249.6700873557346 37.47831815612283, 250.0399308796263 35.779220588900216, 250.2596545788341 34.43198105068237 C250.4793782780419 33.08474151246452, 250.60876391229448 31.883808817944683, 250.86421478560177 30.698979158963986 C251.11966565890907 29.51414949998329, 251.5060884066084 28.33498679277331, 251.79235981867797 27.323003096798182 C252.07863123074753 26.311019400823053, 251.79567508507083 25.530294126800385, 252.5818432580192 24.627076983113206 C253.36801143096758 23.723859839426026, 255.58760863837463 23.140904882507776, 256.50936885636827 21.903700234675096 C257.4311290743619 20.666495586842416, 257.20535183601737 18.14040000388546, 258.11240456598097 17.20384909611712 C259.01945729594456 16.267298188348782, 260.73861687001346 16.85257509129904, 261.9516852361498 16.284394788065065 C263.1647536022861 15.716214484831088, 264.3331241522597 14.621343900893596, 265.39081476279887 13.794767276713266 C266.44850537333804 12.968190652532936, 267.12501305697884 11.79594628247153, 268.2978288993848 11.324935042983086 C269.47064474179075 10.853923803494641, 271.32462269149966 11.362640361714506, 272.42770981723464 10.968699839782598 C273.53079694296963 10.57475931785069, 274.20456661537014 8.962457258852922, 274.9163516537947 8.961291911391637 C275.6281366922193 8.960126563930352, 276.3964330124609 10.30371398742078, 276.69842004778224 10.961707755014892 M290.0417071896325 11.678280697356232 C291.4166592031496 11.986745726549707, 292.7362605108974 12.848363108775649, 293.9176802823545 13.514914004742437 C295.09910005381164 14.181464900709225, 296.16943913065984 14.913926718586406, 297.13022581837515 15.677586073156956 C298.09101250609046 16.441245427727505, 298.91029322365773 17.433849536646377, 299.6824004086465 18.096870132165737 C300.4545075936353 18.759890727685097, 300.67369698326604 18.750541432875163, 301.762868928308 19.655709646273117 C302.85204087335 20.56087785967107, 305.1885672455103 22.689878142831578, 306.2174320788983 23.52787941255346 C307.2462969122863 24.365880682275343, 307.20845149844587 23.67238318039076, 307.936057928636 24.68371726460441 C308.6636643588261 25.695051348818062, 310.00631230845295 28.22783147760775, 310.583070660039 29.595883917835355 C311.1598290116251 30.96393635806296, 311.5649343697645 31.93699362321535, 311.39660803815264 32.89203190597003 C311.22828170654077 33.84707018872471, 309.60594277990134 34.28225115876808, 309.5731126703678 35.32611361436342 C309.5402825608342 36.36997606995877, 310.98901929857936 37.44316901237299, 311.19962738095137 39.1552066395421 C311.4102354633234 40.86724426671121, 310.9552551346207 43.921212945851096, 310.8367611645997 45.598339377378075 C310.7182671945787 47.275465808905054, 310.66698744635266 47.984392551437054, 310.4886635608253 49.217965228703996 C310.3103396752979 50.45153790597094, 310.31709315360905 52.1480895300849, 309.7668178514354 52.999775440979725 C309.21654254926176 53.85146135187455, 308.0821170992855 53.474894563961215, 307.1870117477835 54.328080694072945 C306.29190639628155 55.181266824184675, 305.02582070458914 56.86008421022112, 304.39618574242377 58.118892221650086 C303.7665507802584 59.377700233079054, 304.4888212793399 60.7556518664858, 303.4092019747915 61.88092876264676 C302.32958267024304 63.00620565880772, 299.13840599737057 64.3792424168979, 297.9184699151333 64.87055359861586 C296.69853383289603 65.36186478033382, 297.02816504276365 64.19251662178029, 296.0895854813677 64.82879585295453 C295.15100591997174 65.46507508412877, 293.66298736429513 67.78556549576822, 292.2869925467577 68.68822898566133 C290.91099772922024 69.59089247555443, 288.75536894653476 70.10844233907184, 287.83361657614296 70.24477679231312 C286.91186420575116 70.3811112455544, 287.77180342314955 69.4684580815285, 286.7564783244069 69.50623570510894 C285.7411532256642 69.54401332868937, 283.17100597179365 70.13813305565833, 281.7416659836871 70.47144253379572 C280.3123259955805 70.80475201193312, 279.56893439989915 71.66962410559437, 278.18043839576734 71.5060925739333 C276.79194239163553 71.34256104227224, 274.79464523433745 69.8639630527774, 273.41068995889606 69.49025334382937 C272.02673468345466 69.11654363488134, 270.9913482527967 69.48287671421483, 269.876706743119 69.26383432024514 C268.76206523344126 69.04479192627545, 268.04214882929807 68.60812684897444, 266.7228409008297 68.17599898001126 C265.4035329723613 67.74387111104808, 263.17158632085795 67.23955430032396, 261.96085917230863 66.67106710646604 C260.7501320237593 66.10257991260812, 260.48706984645594 65.75880459738977, 259.45847800953385 64.76507581686377 C258.42988617261176 63.77134703633777, 256.50627881163706 61.81179545806527, 255.78930815077604 60.708694423310035 C255.072337489915 59.6055933885548, 255.46844185557563 59.202810682044735, 255.15665404436757 58.14646960833236 C254.8448662331595 57.090128534619986, 254.52907018840014 55.55043013973035, 253.91858128352763 54.37064798103579 C253.30809237865512 53.19086582234122, 252.2774844572195 52.07692935825602, 251.49372061513253 51.067776656164995 C250.70995677304558 50.05862395407397, 249.38718841644808 49.43756702148799, 249.21599823100587 48.31573176848964 C249.04480804556366 47.19389651549129, 250.61432349129947 46.064181656827536, 250.46657950247925 44.336765138174876 C250.31883551365902 42.609348619522216, 248.77621538574746 39.344422015472055, 248.32953429808452 37.951232656573694 C247.8828532104216 36.55804329767533, 247.50767368509113 37.24397725128107, 247.78649297650156 35.9776289847847 C248.065312267912 34.71128071828833, 249.39096937098284 31.710620239810282, 250.00245004654712 30.35314305759547 C250.6139307221114 28.99566587538066, 251.0785956174076 28.67936135482425, 251.45537702988725 27.832765891495825 C251.8321584423669 26.9861704281674, 251.62663741683411 26.406245703182115, 252.26313852142513 25.273570277624938 C252.89963962601615 24.14089485206776, 254.55045906947498 22.264082991591646, 255.27438365743328 21.03671333815277 C255.99830824539157 19.80934368471389, 255.67490199522757 18.98173866831059, 256.6066860491749 17.90935235699168 C257.5384701031223 16.836966045672767, 259.8421022679769 15.452134268046636, 260.86508798111737 14.602395470239308 C261.88807369425786 13.75265667243198, 261.83551713437316 13.24542103954196, 262.7446003280177 12.81091957014771 C263.6536835216623 12.376418100753462, 264.86779473598773 12.134420572190997, 266.31958714298474 11.995386653873812 C267.77137954998176 11.856352735556626, 270.27661645022295 12.459760498092587, 271.45535476999976 11.976716060244598 C272.63409308977657 11.49367162239661, 271.9507346876733 9.30909751426773, 273.39201706164573 9.09712002678588 C274.8332994356182 8.88514253930403, 278.4831779508803 10.416258071527102, 280.10304901383455 10.704851135353497 C281.7229200767888 10.993444199179892, 282.21412320596187 10.777667878369702, 283.1112434393714 10.828678409744253 C284.0083636727809 10.879688941118804, 284.5145815701133 11.184502321004784, 285.48577041429155 11.010914323600804 C286.4569592584698 10.837326326196825, 288.39075720750697 9.553937979629943, 288.9383765044407 9.787150425320377 C289.4859958013745 10.02036287101081, 288.6663988506506 11.875688993863633, 288.77148619589417 12.410188997743404" fill='none' stroke='#4e9835' stroke-width='1' fill-weight='0' />
</g>
<g  >
<path d="M361.3417477632318 7.653907824403181 C371.19462852807294 8.007048254303685, 391.4178829648284 30.951953791945677, 390.8626651468494 41.58833459685992 C390.3074473288704 52.22471540177417, 368.22079930076524 71.96991922492585, 358.01044085535796 71.47219265388864 C347.8000824099507 70.97446608285144, 328.1938983242571 48.85706926505092, 329.6005144744057 38.60197517063671 C331.00713062455435 28.34688107622251, 359.3200952758789 14.474576673565124, 366.4501377562497 9.941628087403405 C373.58018023662055 5.408679501241685, 372.2909059344875 10.897813100292263, 372.3807693566307 11.404283653666393 M350.09521271180233 8.742125453861512 C359.666442632167 5.772431036041944, 387.93397760932663 20.28956729727685, 391.1872779462067 30.61191035290895 C394.4405782830867 40.93425340854105, 379.9638973025268 67.51171914366753, 369.61501473308255 70.67618378765411 C359.2661321636383 73.84064843164069, 332.29580021935556 59.85641081505642, 329.09398252954134 49.59869821682843 C325.8921648397271 39.34098561860044, 346.6963022626636 15.545951793287703, 350.40410859419717 9.129908198286188 C354.11191492573073 2.713864603284672, 351.25652487518647 10.300030027241123, 351.3408205187429 11.102436646819335" fill='none' stroke='#4e9835' stroke-width='1' fill-weight='0' />
</g>
</svg>
