<?xml version="1.0"?>
<!-- Generated by SVGo -->
<svg width="320" height="220"
     xmlns="http://www.w3.org/2000/svg"
     xmlns:xlink="http://www.w3.org/1999/xlink">
<g  >
<path d="M10.394212491435269 8.374384601095638 L208.4101667013863 4.545840163311269 L120.0753153978831 69.22949885784207 L102.73435479481157 87.64989627717804 L96.79597603213438 96.90551749373695 L99.92154885247008 101.43544669341955 L112.63651852180455 105.05832348219403 L140.0005728916386 103.5468535750709 L274.3357957204606 96.40680724355933 L292.8453874584361 95.16136099509599 L299.9240988560688 97.78938907433049 L301.2637179160678 100.15931135667824 L290.7769128568552 109.4940788623712 L249.027008379729 128.0038641864465 L58.996981489248476 201.3079666355636" fill-weight='1' stroke='none' stroke-width='0' fill='none' />
<path d="M10.227768394000954 11.14608716296907 C41.63462084839328 11.398790072072211, 184.34366112622754 -3.7696772360535302, 199.3679898159363 10.868318770777046 C214.39231850564508 25.50631477760762, 83.77448238887378 83.95108124066556, 100.37374053225356 98.97406320395253 C116.97299867563335 113.99704516723949, 305.8396223452275 84.27094933288065, 298.963538676215 101.00621055049886 C292.08745500720255 117.74147176811708, 99.02585681289688 182.83846270659092, 59.11723851817873 199.3856305096618 M8.387844461759713 10.51482551782026 C40.04691383143512 10.486199902861829, 185.82009807248045 -5.161321452878562, 201.1268650904037 9.574709335243462 C216.43363210832695 24.310740123365484, 83.50327894750663 83.77006885731998, 100.22844656929925 98.9310102465524 C116.95361419109187 114.09195163578482, 308.0292711958937 83.68780465893006, 301.4778708211594 100.540357670638 C294.92647044642507 117.39291068234594, 101.28727896316687 183.75115386261473, 60.92004432089323 200.04632831680004" fill='none' stroke='#000' stroke-width='1' fill-weight='1' />
</g>
<g  >
<path d="M51.363911401539724 21.15293283467856 L24.928061808435253 155.82745142643157 L10.711181690660261 200.44251797741666 L11.964508136837754 203.91867182321835 L40.43161091892816 198.65483334627703 L165.7055946711161 200.80889100509668 L208.60966974089672 196.3431199933351 L263.4698525254585 192.73156801837655 L290.9201177264889 185.82552674421746 L300.08030653925596 181.0960007583178 L308.5398965255868 175.37618530137468 L312.62402612798536 163.83054190063515 L314.7929380988904 157.07864017480333 L316.6706559720402 145.4170307863904 L319.06645968359317 122.01251204595798 L314.3549505955735 94.50050557128765 L307.2176918516045 68.67843655344933 L295.2919926707716 43.303732920032495 L284.1846231431303 29.79460163543787 L279.9156516989893 31.101489288488594 L276.8682392553235 30.84218014174367 L262.2342637363197 41.272640765050156 L241.51191751216635 71.07360536801437 L223.2853950725648 97.39097609442808 L169.68263769268628 179.9828825551541" fill-weight='0' stroke='none' stroke-width='0' fill='none' />
<path d="M48.8752029275136 18.991665907603636 C45.19978846618193 48.95512699090772, -12.787534613324574 173.21078182350482, 29.01777750595876 200.03995418255084 C70.82308962524209 226.86912654159687, 257.98486601205605 208.31337912204557, 299.7070756432136 179.96670006187972 C341.4292852743712 151.62002100171387, 300.77337282548024 29.815242912148832, 279.35103529290427 29.959879821555706 C257.9286977603283 30.10451673096258, 189.26405836447543 155.97272182162652, 171.17305044775765 180.83452151832097 M51.160922244475216 20.344240785972566 C47.53738393783637 50.62023074584594, -12.861441407981488 173.686490940216, 28.618867142635033 200.05009042870196 C70.09917569325155 226.41368991718792, 258.205577547726 206.94125327816505, 300.04277354817435 178.5258377168884 C341.8799695486227 150.11042215561173, 301.14766547476694 29.47736229100398, 279.6420431453249 29.557597061042017 C258.1364208158829 29.637831831080053, 189.10293534120913 153.94635450787453, 171.00903957152224 179.0072463371166" fill='none' fill-weight='0' stroke='#ff0000' stroke-width='1' />
</g>
</svg>
