<?xml version="1.0"?>
<!-- Generated by SVGo -->
<svg width="340" height="120"
     xmlns="http://www.w3.org/2000/svg"
     xmlns:xlink="http://www.w3.org/1999/xlink">
<g  >
<path d="M42.8755552948236 55.901454853104326 C48.01568148597613 56.04522883914444, 54.21345885670872 59.18951717115769, 57.97761694039963 62.92610999453515 C61.741775024090536 66.66270281791262, 64.95803183839483 72.95135123288155, 65.46050379696906 78.32101179336912 C65.9629757555433 83.6906723538567, 64.0798138212401 90.81884404860523, 60.992448691845 95.1440733574606 C57.9050835624499 99.46930266631597, 52.163628889179336 102.91834482561949, 46.9363130205985 104.2723876465013 C41.70899715201766 105.62643046738312, 34.56011629887716 105.50558379172496, 29.62855348035998 103.26833028275152 C24.6969906618428 101.03107677377808, 19.627300078306575 95.94086123553777, 17.346936109495424 90.84886659266067 C15.066572140684272 85.75687194978357, 14.538041040762376 78.0281258901743, 15.94636966749307 72.71636242548897 C17.354698294223763 67.40459896080364, 20.91354577589156 61.8728232155455, 25.796907869879583 58.978285804548726 C30.680269963867605 56.08374839355195, 41.51330646805586 55.66204374505528, 45.24654223142121 55.349137959508305 C48.97977799478656 55.03623217396133, 48.2855380282456 56.719242797228496, 48.196322450071676 57.10085109126689 M42.480346587097465 54.94018544800926 C47.847347667291785 55.3633296831374, 54.66390721947797 60.08730347216511, 58.65652275309205 64.04892309603747 C62.649138286706126 68.01054271990982, 66.30648046829226 73.35693881579613, 66.43603978878193 78.7099031912434 C66.56559910927159 84.06286756669067, 62.62525712079043 91.89744613872678, 59.433878676030055 96.16670934872106 C56.24250023126968 100.43597255871533, 52.26565401826713 103.14967974055944, 47.287769120219664 104.32548245120908 C42.3098842221722 105.50128516185873, 34.41083362580121 105.82077183162761, 29.56656928774529 103.2215256126189 C24.722304949689367 100.6222793936102, 20.56813568969333 93.68980787165967, 18.222183091884144 88.73000513715684 C15.876230494074957 83.77020240265401, 13.952769102930214 78.42338563057164, 15.49085370089016 73.46270920560197 C17.028938298850107 68.50203278063229, 23.12389271850421 62.023461843036216, 27.45069067964382 58.965946587338806 C31.77748864078343 55.908431331641395, 38.746367244068956 55.68698509168897, 41.45164146772782 55.117617671417506 C44.15691569138668 54.548250251146044, 43.36952086418956 55.31506615529016, 43.68233602159698 55.54974206571005" fill='none' stroke='#ff0080' stroke-width='1' fill-weight='0' />
</g>
<g  >
<path d="M146.77176015197105 2.692525786330016 C152.09492082889474 0.8950222892988979, 159.62129576833166 4.7926248694870415, 164.5253164208342 9.970184590084841 C169.42933707333674 15.14774431068264, 173.51026999506144 24.472645537156104, 176.19588406698637 33.757884109916816 C178.8814981389113 43.04312268267753, 181.11922167541925 55.17792252634663, 180.63900085238387 65.68161602664912 C180.1587800293485 76.18530952695161, 176.87046778293688 88.69591589937538, 173.3145591287741 96.78004511173178 C169.75865047461133 104.86417432408818, 164.75056510357703 111.35297017394853, 159.30354892740715 114.1863913007875 C153.85653275123727 117.01981242762648, 146.20543346128414 116.86472182695314, 140.63246207175484 113.78057187276558 C135.05949068222554 110.69642191857801, 129.3084421201283 103.9051030392309, 125.86572059023132 95.68149157566214 C122.42299906033435 87.45788011209338, 120.2193442681542 75.24065307141842, 119.97613289237304 64.43890309135301 C119.73292151659189 53.63715311128761, 121.5524824865475 40.25902294839685, 124.40645233554436 30.87099169526971 C127.26042218454121 21.482960442142566, 132.63510268831348 12.675776757913209, 137.09995198635414 8.11071557259016 C141.5648012843948 3.545654387267109, 148.23053845373636 3.9103551817674487, 151.1955481237884 3.480624583331405 C154.16055779384044 3.0508939848953616, 154.85215091035886 4.5647439228120135, 154.8900100066663 5.532331981973897 M153.1140154368903 2.2770856571448874 C158.3120580848485 2.8646686525438354, 165.42696172417806 10.142253131892605, 169.79977523628372 16.92251422449103 C174.1725887483894 23.702775317089458, 178.0474060349094 32.80155524391147, 179.3508965095242 42.958652212735444 C180.65438698413902 53.115749181559416, 179.21674606728754 67.46085482865689, 177.62071808397258 77.86509603743485 C176.0246901006576 88.26933724621281, 173.77513576115334 98.64102610636303, 169.77472860963445 105.38409946540321 C165.77432145811557 112.12717282444339, 159.6772489523895 117.55126545533754, 153.61827517485926 118.32353619167591 C147.55930139732902 119.09580692801428, 138.51705864278722 115.49384205031157, 133.42088594445303 110.01772388343346 C128.32471324611885 104.54160571655535, 125.52539272558384 95.26620282111708, 123.04123898485423 85.46682719040723 C120.55708524412462 75.66745155969738, 117.65213881382921 61.779614146023334, 118.51596350007539 51.221470099174375 C119.37978818632156 40.66332605232542, 124.42412397033488 29.933071745140268, 128.22418710233126 22.117962909313462 C132.02425023432764 14.302854073486657, 137.3312251584586 7.3336052696719065, 141.31634229205363 4.330817084213535 C145.30145942564866 1.3280288987551643, 150.1741318743681 4.130783593558816, 152.1348899039015 4.1012337965632355 C154.0956479334349 4.071683999567655, 153.07119703311713 3.604745030574584, 153.080890469254 4.153518302240052" fill='none' stroke='#00ff80' stroke-width='1' fill-weight='0' />
</g>
<g  >
<path d="M273.13884246548844 19.29539155717425 C284.8070644835618 20.575401978653037, 296.4513818550238 26.041596892078683, 305.1818393398555 31.212084603754356 C313.91229682468725 36.382572315430025, 322.1990264692241 43.67285375928631, 325.5215873744788 50.31831782722828 C328.84414827973353 56.96378189517024, 328.212050842629 64.79827126518299, 325.1172047713838 71.08486901140616 C322.02235870013857 77.37146675762932, 315.6631306941806 83.13548629164652, 306.9525109470074 88.03790430456725 C298.2418911998342 92.94032231748798, 284.9436910507983 98.28872926579261, 272.85348628834447 100.49937708893054 C260.76328152589065 102.71002491206848, 246.71043030298455 102.93111131520277, 234.4112823722844 101.30179124339483 C222.11213444158426 99.67247117158689, 208.42965991188055 95.18886015863417, 199.0585987041437 90.72345665808291 C189.68753749640683 86.25805315753165, 182.49449850299288 80.86943031406015, 178.18491512586334 74.50937024008728 C173.8753317487338 68.1493101661144, 171.2134318942827 59.44355065901608, 173.20109844136653 52.56309621424566 C175.18876498845034 45.68264176947524, 182.290907105896 38.512302756837485, 190.1109144083662 33.226643571464734 C197.9309217108364 27.940984386091984, 208.74090736628307 23.43683461563742, 220.12114225618782 20.849141102009156 C231.50137714609258 18.261447588380893, 248.8706157849478 17.74462565418941, 258.3923237477948 17.700482489695148 C267.91403171064184 17.656339325200886, 273.42672823783437 19.568462647803653, 277.25139003326996 20.584282115043592 C281.07605182870554 21.600101582283532, 281.6560281194155 23.044543719688356, 281.34029452040846 23.795399293134793 M221.37141328525445 22.65927108918848 C231.7777260955181 19.540505399962885, 246.8276043996246 17.333500426595812, 258.99945544836635 17.93404162692186 C271.1713064971081 18.53458282724791, 284.3887223968054 22.078442842160705, 294.402519577705 26.262518291144765 C304.4163167586046 30.446593740128826, 313.6407013425757 37.11729728857513, 319.08223853376387 43.03849432082622 C324.52377572495203 48.959691353077304, 327.73574945244263 55.13027812350944, 327.05174272483407 61.78970048465128 C326.3677359972255 68.44912284579311, 321.9224550146728 76.99080457668434, 314.9781981681124 82.99502848767722 C308.033941321552 88.9992523986701, 296.4265707838087 94.54259143330677, 285.3862016454719 97.81504395060855 C274.34583250713507 101.08749646791034, 261.1366202513635 102.91899916397718, 248.73598333809142 102.62974359148794 C236.3353464248193 102.3404880189987, 221.62589333849485 99.56753359096153, 210.9823801658393 96.07951051567312 C200.33886699318373 92.59148744038471, 190.99179326682844 87.63564984602364, 184.87490430215797 81.70160513975748 C178.7580153374875 75.76756043349131, 174.89173054696744 67.5095597295738, 174.2810463778165 60.47524227807611 C173.67036220866555 53.440924826578424, 175.47954759251928 45.39084382463541, 181.2107992872523 39.49570043077135 C186.94205098198535 33.60055703690729, 202.04592777367031 28.07514115157079, 208.66855654621466 25.104381914891732 C215.291185318759 22.133622678212674, 218.95157342300914 22.389783992643927, 220.94657192251844 21.67114501069701 C222.94157042202775 20.952506028750093, 220.36043135568391 19.97456642601845, 220.63854754327048 20.792548023210223" fill='none' stroke-width='1' fill-weight='0' stroke='#660066' />
</g>
</svg>
