<?xml version="1.0"?>
<!-- Generated by SVGo -->
<svg width="320" height="220"
     xmlns="http://www.w3.org/2000/svg"
     xmlns:xlink="http://www.w3.org/1999/xlink">
<g  >
<path d="M11.591465531579093 11.776941870220112 C80.46498993752763 11.305152297781422, 148.30074760187108 8.35949027680893, 199.8750059444145 11.09388953332229 M9.399814618810808 10.322147352846159 C83.81266544964772 11.871363641581588, 158.2939000981619 12.292464966623761, 199.71873730823285 10.620818529416423 M201.75815141106946 10.8580049827654 C171.37205143194774 34.76189149726142, 143.42841399520415 61.37208414482799, 101.48558631549436 99.90396292489703 M200.8361510228251 10.140918978631046 C180.16543564130873 27.826097415714376, 159.47971868279237 48.26699605427411, 100.83230071932961 99.88166155358826 M98.20021029394424 98.69371268931306 C175.68736667970416 99.23521743937195, 247.31960835993362 98.34472201489756, 299.91499664558125 98.64043911002727 M99.49164549459695 100.29435152865179 C158.82573262826497 101.95692651412503, 216.80026153408156 102.53449832213987, 300.3862320429842 99.70302531830977 M301.20554788652123 100.12739305877389 C243.0182646880257 123.46894182324404, 186.13703686823217 146.38418847584217, 60.087268763560964 201.32522148321777 M299.78055439353693 100.69567174746784 C247.51653893774406 123.59047307310064, 196.07615427342427 144.8534611012558, 59.633284825487195 199.34854119450748" fill='none' stroke-width='1' stroke='#000' />
</g>
<g  >
<path d="M20.799960138806387 48.123646910833536 C30.546640367197043 101.35403641446672, 41.72513958486731 155.08871121227088, 48.70636381624335 198.61649053354355 M19.894982339786765 49.60389289145289 C32.37584240884169 106.28146848038813, 42.74083841977359 163.79749738522975, 49.28674071484403 199.30199678232063 M51.57452562550628 198.4727196499998 C61.427433320372295 141.86901749107858, 73.90860605963996 85.18792545218186, 81.0099920419488 49.984194347176164 M49.77210241803703 199.10524856015803 C60.19001240657355 147.5666572665413, 70.51786153327191 95.43821384097332, 80.42459347729941 50.22633265679541 M81.23092236841232 51.613356531098916 C88.86010392793666 86.77856504788046, 96.0271191373147 128.349923308857, 110.86126244896465 198.55561798720072 M80.86989362473967 50.48868303373589 C86.56604442070403 85.43157164916337, 93.50306296541159 122.72963555466475, 109.0176435260238 199.4347658610335 M110.85839142800607 198.96507280543238 C118.64743150462142 160.29093819255812, 128.38429426434803 117.04914713613088, 140.31081748057656 48.610948502884575 M110.16550306581946 199.9451146304784 C120.74011727748282 150.2738351012902, 130.3866342165873 102.62884025314807, 140.2222566937741 49.26454258499042 M138.06451883206543 50.851620420303206 C151.94761560397902 97.7285879319028, 158.13297667077518 146.6267388073029, 169.27875626842783 200.702424123568 M140.1596105200164 50.66680953405131 C151.87931883411719 108.78285849183875, 164.241012093259 166.3271270479204, 169.00546938467176 199.81648470668958 M168.496640903232 200.19024570750392 C180.9923978123399 144.71907052218992, 191.6163531414475 90.78225160595333, 199.87584052426152 50.2997759378077 M170.53563481651622 200.54260608828082 C181.65323114569955 149.55086028913033, 191.36151753029725 96.48602211326124, 200.91069659534796 50.901983448113846 M199.94093545183875 50.31126557825749 C209.87585002145494 93.62195374833337, 217.71134977490618 142.33124626393626, 229.8074271326015 201.58613611950906 M200.71725597309998 50.59959535707979 C213.1477481809385 109.00603677240599, 225.9823905882971 167.9432039822638, 229.68315228972384 200.49349718676098 M229.41518020889646 199.33731779409183 C235.60081605009023 168.97140699349245, 241.15571207877176 137.92241350944732, 258.5274060933525 50.94693743798039 M230.1927234523484 199.51723902143738 C240.06907813858294 150.77581953719672, 249.90093379451315 103.24026762448105, 259.77704587088493 49.48892545917225 M261.0878374932194 50.15604171406186 C264.44578356728647 82.97900557450237, 271.9136997124849 113.61817659766139, 288.5731590334412 201.22917082251743 M260.59887512070327 49.89480828059202 C267.3431520293024 85.17893174580254, 274.2050814775634 120.69519516780807, 290.2329969310808 200.3586507226699" fill='none' stroke='#00ff00' stroke-width='1' />
</g>
</svg>
