<?xml version="1.0"?>
<!-- Generated by SVGo -->
<svg width="280" height="240"
     xmlns="http://www.w3.org/2000/svg"
     xmlns:xlink="http://www.w3.org/1999/xlink">
<g  >
<path d="M146.62868543058897 67.40806616800123 L87.09748879926991 26.277698499264428 L49.07174771351074 41.65225360007437 L26.271957317798506 73.89984520249678 L26.71480899296796 118.07818467943046 L39.058500144654545 157.84278773419882 L58.80614157326795 184.4494250661325 L91.69390564166173 194.88945747488512 L130.78303781031784 188.76447219377243 L130.992145641491 201.50564760188587 L153.19199323158304 198.3518411951166 L151.82949103289383 129.61699880376707 L105.05980790392401 127.2888277296587 L105.49981904706532 141.65826881710151 L127.83964921833582 144.65982031449 L128.94431690950236 162.6218295205352 L113.28783836902072 179.3402577890924 L87.04722333098054 179.71975522151746 L76.56130662563042 175.7134426745827 L58.944914506821114 149.32970090223677 L46.68315489884902 119.63484547700713 L51.66442589481543 81.48049390118405 L68.81342152875197 56.3488510027415 L104.39082797283399 54.39817487591137 L133.40350217156197 78.87655912988572 L146.53408519478862 67.85854012413783" fill-weight='0' stroke='none' stroke-width='0' fill='none' />
<path d="M148.1841396423908 65.66948091105793 C132.02340154830085 55.82988459472322, 113.93810529405059 43.84036213661151, 87.84614917692953 25.115445317638628 M147.3382727801178 66.19136820243344 C125.14593894120912 50.93410132738065, 101.97156141323032 36.766368296105114, 87.65406112774859 26.51179923286664 M88.79425345463758 26.088277273274905 C73.98258188743995 31.493306659724958, 56.53787346274656 37.042348943434305, 48.41283867374246 41.463312645168585 M88.02087168045932 26.587659990775496 C74.94202600077898 31.668684611829363, 61.22234426028601 36.185822119428984, 48.468704642755 40.58098868831453 M50.38017833314925 40.153658699636665 C41.9219436207748 51.919913025622776, 35.16962854034977 60.23887862647828, 25.745071628309457 73.69154299565105 M47.81074472958641 40.38505165450414 C42.092402152945034 50.08544587930494, 35.367982651911234 59.77583462225812, 27.196800643142492 72.77139395682525 M25.71276628513878 73.66214282062556 C25.19170756268357 87.87089945864375, 26.950596550226997 105.83583952939959, 25.51563236968438 116.93638402351004 M27.072106671975114 72.84491800049206 C27.567596545204797 82.06205889375052, 26.495168611720686 90.3587573780972, 26.228627394892097 118.08572766552318 M25.36008800613126 118.72017239771493 C31.389083852705994 124.33848248389268, 31.473302455149177 134.4136238688679, 40.15519830497081 160.16899767007854 M27.028956892617867 117.79083691550862 C31.66873460345987 131.3132317434495, 36.40288406749739 146.8125243383275, 39.79860117152318 157.76851657033603 M39.12145393607507 159.66937567251276 C42.813688246178366 164.77867742472472, 49.65762575216559 171.03019843856134, 57.426906192842445 184.5622072535352 M40.558695494712566 158.89957579766227 C47.16539007317485 168.69354951733695, 54.67271694280861 177.24148400409658, 57.86918007897801 184.10290774696912 M57.64134692638528 184.78816470888043 C64.46582901537327 186.11781454206823, 73.14327407599278 190.6386224002868, 92.09419358263587 196.83734295771512 M58.36281655013703 185.39432460231646 C68.64544306434229 187.60109789585832, 76.94147926547129 191.7209241124358, 91.71990139951667 196.74624750669935 M90.94194570559422 195.39354537877404 C103.86756832715412 192.975580247552, 116.56846469675766 188.99538736644473, 131.13111694339503 188.68885182226256 M93.03873491492243 196.0343624507845 C101.75529858668618 193.17662871456747, 113.59830160618415 191.71266121981446, 131.63160737787774 187.81052763369215 M131.83840218016604 188.05606984871386 C130.97010356728183 192.17880328455666, 132.60481008216527 193.2733946392814, 131.25993128127965 200.1354674671037 M130.71481744451089 188.5304430989592 C131.37712770361327 192.3474192042017, 132.41285962451263 197.8033442669, 132.32260163990043 200.12598439121479 M132.1850998838046 200.97001625608192 C135.67693840612847 199.11147273721016, 142.87839291262887 201.54141240285196, 154.61796156216604 200.6017876787822 M133.2923762134494 200.316679638846 C136.46600672405546 200.20348652240074, 141.3507222162658 199.46874101682894, 151.9487835353245 199.9857857524232 M152.2284374298752 198.9904563260237 C153.1754205642028 185.5591050809235, 149.6439372785816 166.80240153210397, 151.35821513943927 128.83245746265345 M151.82780447041435 201.1751214860764 C151.32182952642245 175.57552191181702, 149.51558614196495 150.16067670502466, 151.00184284431978 127.51319265494172 M150.89769763208312 127.87654424954573 C136.5560076447641 129.3214408158633, 124.41741544738724 127.35067150945785, 103.97474834872203 126.04317883688518 M150.88209021842417 129.38112694518728 C139.94307992575992 126.99746230352434, 131.30305718538978 126.81689426654987, 105.53832952331412 126.23807843229012 M106.33719974056068 127.59790286721072 C105.68466664874016 131.52994031573934, 104.25792717835107 136.77537753998155, 103.97889588201406 141.27059153903195 M104.35774968723683 126.55416690105724 C104.4455425713372 130.09302467601148, 105.22040619196927 133.82071924150063, 104.60244665239613 141.43743661459877 M105.9416158432366 139.97409154177527 C114.7059805010858 143.22943025089089, 121.13637968557506 144.64198515003548, 127.48286290686215 146.00055227390664 M105.08378255439553 141.2422229642735 C111.0531961900437 142.9507990817862, 117.8901778094034 143.59479091668774, 125.23867624055579 145.45270083471954 M125.75265099829022 146.38240521425234 C126.9998026208295 147.98363349957404, 127.08611484398827 152.5738723295462, 129.14183044387795 161.0694776786707 M126.746126601971 145.9775716295139 C126.69158037292141 151.4084042009752, 129.1588854377448 156.3803549857807, 129.92369253666467 160.65200286880514 M129.1172574717272 161.3560590152093 C127.47145592959926 166.3463311044882, 122.46941588206525 167.48796997217437, 112.44356398671972 176.54693252301962 M129.99819524412678 161.30632783226622 C124.18037790220893 166.35798595966378, 118.89713763790839 172.87950060158093, 113.83024550256087 178.91109920493187 M112.50918526965425 178.30568870932643 C107.05215041723766 176.27826816186095, 101.21262375417905 176.2744508482013, 86.87899611657255 177.19902879276836 M114.72967931542019 177.50740960494633 C107.68531517646724 177.07704387932907, 99.56505830006711 177.7306432513564, 85.08376446674983 178.4598177776982 M85.28442635634713 179.81813881122676 C82.2647672497198 177.55734881371257, 79.99510672990583 176.6488646771785, 74.75199732240834 174.80064093278693 M85.971953245337 179.0632195227789 C82.13180176568639 177.52006873769582, 79.47916402396729 176.12510151803733, 75.23423427360017 174.2040972928697 M76.04985728496663 174.36548841478626 C67.90892342141751 167.59421317387307, 62.19273449795961 157.55287726521422, 58.91774463896354 148.63800551484306 M75.70043152944483 174.42382526542687 C68.30530857621484 164.87759622310315, 62.4970850564469 156.39761354146066, 59.027692685280456 151.52906264220925 M56.629889606839384 151.3141177006177 C54.306989633255036 143.43287651149686, 55.01308435255373 135.00325899766477, 46.67750521041618 119.48681231376976 M59.403070450507975 151.14702231379087 C54.76461292310704 139.26666839808104, 50.989668019324114 126.76193787828018, 48.815182094386515 117.8206371286316 M50.29872634845016 117.45647515903035 C48.095580695601335 102.51550440175018, 48.336118821813216 90.97660597879309, 51.91621954831518 82.73934550996691 M49.11679521797549 118.38226246193271 C48.95586217443258 109.81113364671572, 48.86557398985701 100.2869041581945, 51.758677618816506 80.95944765324778 M50.330864139462584 83.66612261131601 C58.29092676483804 71.58216246262188, 63.42852415084341 65.69536792686685, 69.70798115636397 55.703762932480544 M51.61199906804816 81.87172209823348 C56.529379042676865 73.80812555048885, 61.89358709235506 65.6585909969561, 69.828142837242 55.82436385927912 M69.24430352731919 54.58964187404835 C80.50481246481975 56.8279214977309, 97.1529402710576 57.632939593879875, 104.64193287577584 54.37721014492465 M68.90183715901671 55.76990921103102 C79.18992290785249 56.16507046346666, 87.65686249298453 55.19656624904565, 103.96577637192581 56.46182695750141 M103.34183457493322 56.54440035479413 C109.22800606578873 62.485384775919194, 116.28785204011157 70.22588543036679, 130.46446647539193 81.23376253335941 M103.46360726112032 55.77639804817512 C113.08952900781422 63.890030372339346, 121.0616721074958 72.32770644997878, 132.29249849068384 80.36841436247329 M131.02934345217545 81.14269255886452 C137.7555395958524 74.68577474499678, 143.81679007252595 70.4911967378224, 148.4344828367464 65.8698327848755 M133.15118361788052 81.26695495939786 C139.32624423201406 76.29860237757197, 143.99013730674366 69.5106607189359, 148.2984573371303 66.6275350119021" fill='none' stroke='#ff0000' stroke-width='1' fill-weight='0' />
</g>
<g  >
<path d="M235.81244374302236 85.21970267024383 L225.54621784499898 167.26908576658022 L192.51521701057345 161.23368119334776 L182.46070711099037 142.89352643415313 L184.33459788299524 81.38863673376639 L193.6881812936516 68.2427330184183 L221.11077086540996 71.96875501280886 L235.59178020022546 88.31245401918167" fill-weight='0' stroke='none' stroke-width='0' fill='none' />
<path d="M166.1297857041007 106.59973076138826 L190.15418312324147 188.4432569474023 L230.70085006815367 195.39352134705058 L246.46756979654782 155.6024555046991 L249.88325847899677 59.135210042312266 L194.2315092719708 41.33480741660559 L171.10411011756312 53.48153621519522 L164.248929488743 106.68871081115563" fill-weight='0' stroke='none' stroke-width='0' fill='none' />
<path d="M235.3482947034849 84.4252081880331 C231.18834244742467 107.82200622376219, 229.31791135646594 131.0235469566255, 223.6886048956523 168.11280230717648 M233.27415201193884 86.33113512843379 C231.17202287354442 117.01661964654541, 226.79385221810264 145.9656496275015, 225.00077368672893 167.84105613011556 M225.1832022959491 166.9390674926757 C215.83425217961067 166.7966317252747, 204.88822410038452 164.64648530262218, 194.46605879053692 160.77838667066214 M224.7814240876795 166.35005102038383 C215.91919377621812 165.43726240010784, 207.12776492935868 163.03792249130854, 193.23640381805595 160.95263448856934 M193.11506527832177 161.3999434128366 C190.19070188242398 155.06616570113724, 190.45468639532362 150.80287210631846, 183.98683013841455 140.09286464201284 M193.07258315379812 161.7844504221157 C191.97571045328954 158.36354724399692, 188.85826318660884 154.03258435085382, 183.67981514586666 141.29148040463974 M182.7895053070213 140.3221778410121 C182.98045644474274 124.32736384372683, 181.59963748933345 102.92179448196077, 184.53561278373743 81.4769674841354 M184.3845236496031 140.9812009777072 C183.5023165421507 125.05014023470162, 183.86148071338405 109.07698291424491, 183.15627879585307 82.96616582151928 M184.1501431925367 82.66221036505162 C187.5918768836612 77.50390198649941, 187.05456875070888 77.47815857218747, 192.30317518269428 67.45216098118895 M183.59403785632435 82.92379039304356 C188.1876924996669 75.6739460267445, 191.4491471722931 69.87943243774691, 193.78117528280768 68.07073567968465 M193.5132121537384 68.23499607447613 C199.54459843854139 67.48382716203112, 209.02445319984508 67.33392253350867, 219.70241150959689 71.51585204563904 M194.50993375886634 66.3523691212212 C202.43833546870047 68.89126150179408, 212.19759601976503 68.84154722729667, 219.283957669564 71.30176776737159 M218.79824952120015 70.53019142534343 C224.25031415569453 72.28592564898418, 226.93216884092382 77.22840095292237, 236.0357166387166 87.18671365351041 M219.78466418342197 69.79478401404161 C224.0603472114105 76.91392770931101, 229.9861695204056 82.36813861860331, 235.17524037395947 86.05657755406166" fill='none' fill-weight='0' stroke='#0000ff' stroke-width='1' />
<path d="M164.78499506462865 104.38566981897803 C172.77168552937337 131.45185496593504, 182.14730396480715 160.2310541318917, 190.88540534873263 187.19176651762663 M165.47677066610703 105.4044686830513 C175.28622444728376 137.55435942785522, 184.2400224258682 170.60051942847724, 188.81619150692202 188.05851594120617 M188.36062620905406 185.9107326108067 C198.5990353423216 188.00089871390938, 204.08106165044654 189.8996688202929, 230.20476523991888 194.89603429435937 M189.4504621777177 187.85460003019847 C205.06118806011528 190.3087903258788, 222.27467282352998 194.06809520577556, 230.26488496260117 194.20909158945258 M230.16765276962863 193.40633577956902 C235.67843604109024 179.95710797654905, 243.44134969514133 166.4285055988481, 247.36858416576365 157.1682167865416 M230.17736329208927 194.91772576609998 C233.9384770561577 186.72844961682, 236.96996658019134 179.45832244689493, 246.4105045876897 154.9286302562771 M246.25010240895838 155.04586089814345 C249.66260750661843 121.36612792472673, 247.98079775894882 83.35976735909507, 248.01822403154722 60.404554943168144 M247.44379947362842 155.80325942305552 C247.19578604355712 131.41204020952398, 248.32782992888772 105.62315489038721, 248.88367525745343 59.47342961901895 M247.52704781549272 59.32823084556424 C227.79505686600484 52.159270891622235, 210.755199448089 45.27662751199649, 193.5292113952764 40.415497096166426 M249.74088202899702 58.58839467586373 C231.464409507574 53.84581673246545, 214.94573009285966 47.74110158984733, 192.1278711175891 40.05915459984222 M192.42405824583062 39.52998811770403 C186.74588762460334 45.67288491531845, 180.03677669137585 45.95518514468187, 171.1126663803547 53.90809224769004 M191.9439856128652 41.1003875716887 C186.91575842822405 45.00112171213033, 180.93208985953058 46.38551742051223, 169.8869310340131 52.78809961122209 M171.7333839760288 53.06480238152658 C168.41068389701033 68.90216364678085, 167.53853605075773 87.56202846970065, 163.4097624667161 105.67016257325577 M169.5775990298057 52.26356630482452 C168.75618203072395 69.32282921863317, 167.23720246405264 87.83171878277436, 165.0669943150741 106.16025840343517" fill='none' stroke='#0000ff' stroke-width='1' fill-weight='0' />
</g>
</svg>
