<?xml version="1.0"?>
<!-- Generated by SVGo -->
<svg width="330" height="80"
     xmlns="http://www.w3.org/2000/svg"
     xmlns:xlink="http://www.w3.org/1999/xlink">
<g  >
<path d="M11.029783140932276 10.434931574138545 C24.680008050702593 9.840494772223806, 33.84048373611011 11.181584108434492, 71.74487814004037 9.03388632279039 M9.879583877549297 10.133786146496607 C32.25004303794916 9.76171250771166, 53.4713510459058 10.552964327463828, 69.38674810686962 9.376409575187711 M69.53170999984927 10.344444011840988 C70.26962552806965 27.68209700525438, 70.29022675993808 43.7790747993904, 71.59724094311558 70.5723679760665 M69.50054660070747 9.485618814347058 C70.91929629608609 22.60385722790654, 70.81536632052938 34.77718428261042, 69.12981095281728 69.05979321534566 M68.7183093221424 68.93335995343315 C48.316982673425315 68.15446494826614, 27.568299017500177 71.57290199794123, 10.938894713977527 69.02495572508586 M69.10563200281149 69.10613405233237 C54.181919008101055 69.95649626485128, 37.18232968967697 70.35289334676258, 10.625392618907465 69.67836806344484 M9.421123133467233 70.16108132572649 C11.498113161898985 46.41037394823578, 8.63481253461412 25.649459628144943, 11.159035119538919 11.019420461206575 M9.563987990741893 69.89210358566004 C9.945090160035953 50.849644138185894, 9.696280198498183 32.67200365237814, 10.058566191507577 9.098320121353954" fill='none' stroke='#4e9835' stroke-width='1' fill-weight='0' />
</g>
<g  >
<path d="M92.70243038164826 15.19244739438779 C112.91278180374279 12.566451639045873, 131.17100246379692 8.465407974742078, 145.4668798002432 8.121493538207671 M92.89418679004639 10.952569174518386 C112.6809645566838 8.531017852710548, 131.85894231009823 5.615920348554331, 147.95620260320547 8.256280204820781 M144.19323720354853 8.340998111915468 C153.6101004826112 30.833715214796456, 148.7229705138917 41.02817010776, 149.6832605616056 64.93077187796877 M151.9285005824132 10.193967484569983 C146.27443642818707 21.768182462534938, 145.8422659402682 34.52480914719007, 147.00417387012658 72.01870610731038 M147.35114621210275 68.85570107858348 C132.46889422253253 63.2381388335263, 124.44621796336517 70.89522957565039, 94.22875182355442 72.93701224193543 M148.4246565501174 69.83460442885944 C134.2236964992916 72.4749576758072, 121.77173363200421 74.04349212762344, 87.7657477966667 68.54576333724796 M89.48270488156935 72.6428349474352 C94.59879260119355 58.407930834081924, 90.69107316294114 35.96279845229489, 94.10112514548936 8.337099643045274 M90.77578210979661 70.91055497902833 C94.29743766558636 59.50802597851058, 97.17857013700387 42.87885745700143, 91.15358515567152 7.162805609009524" fill='none' stroke='#4e9835' stroke-width='1' fill-weight='0' />
</g>
<g  >
<path d="M178.85978692782507 -1.0999349574128559 C183.09773722658102 22.531788291410862, 226.46103684664706 21.939974688664293, 232.94777367016 2.70110091678304 M170.73003120342906 12.16155909991935 C184.47249587173914 7.134658702009048, 211.6438393428461 5.154659313632957, 235.00159181914412 13.254335570093257 M228.71970177858046 15.24023652717635 C231.4953123519549 23.844491575130665, 240.27578276422406 36.716152846169535, 233.17128359269122 61.687676792304146 M231.79988702325406 15.5988463515176 C236.61212942751663 30.978495332856326, 236.69838665231475 42.22722803245323, 232.25847232594555 66.00617240966851 M224.96347640846173 62.267989048661974 C195.45292447163115 74.1311943157512, 177.30834209461952 65.61768526135427, 164.55742067908017 64.49618700089118 M227.80644845817108 68.76988829979605 C212.07142052550319 61.914939109001935, 195.29139649958339 63.7743391327556, 173.84116489969054 66.29540677515631 M180.34938218802696 63.94272903196193 C164.5633665391021 63.6554940728661, 177.8236982626653 30.672459814439172, 176.71708342285345 -0.9584307068981488 M165.23562371402096 71.671914542225 C163.49294947291241 54.33145994429076, 164.75405206470464 42.03694907793435, 171.25372693989374 4.5879490806258545" fill='none' stroke='#4e9835' stroke-width='1' fill-weight='0' />
</g>
<g  >
<path d="M251.7335021772049 8.064129527878205 C274.1256504469741 5.89407555459144, 294.19824286792743 7.398282176993128, 309.9997945147626 9.385772640767868 M249.42264685322905 9.739307985559813 C264.2408216775007 7.602236079431299, 280.4075737145623 8.876037797540574, 310.7469135468897 10.32898987402758 M311.0340658415764 9.875761139563226 C313.9393305506195 28.390083320522525, 313.01712946235887 43.32806269107521, 310.0029995646223 69.98205595938916 M310.75746813693024 10.673826502080605 C296.13486426356917 25.096141050534055, 296.534371873686 37.94690361182177, 310.5511639818014 70.71582896960804 M310.6965659276844 68.07275434786595 C287.0488319004535 66.43444474218818, 269.20689490284747 65.49590935840155, 249.19758256319886 70.39506719188543 M309.71874549925764 69.94951574856702 C294.17032824693996 68.2761674310643, 279.2780534429912 68.80379802511882, 249.74505380188975 70.8792433092638 M248.32693252787345 68.66843284666915 C233.64627227420823 44.3578632417155, 231.89794069144514 21.730505097241615, 251.04629542919005 9.150904369934981 M249.18452972918098 70.39139541800797 C246.5811794606336 55.877954639022725, 247.3672407107343 43.255273917894556, 249.5124101228105 9.764235952321354" fill='none' fill-weight='0' stroke='#4e9835' stroke-width='1' />
</g>
</svg>
