<?xml version="1.0"?>
<!-- Generated by SVGo -->
<svg width="320" height="220"
     xmlns="http://www.w3.org/2000/svg"
     xmlns:xlink="http://www.w3.org/1999/xlink">
<g  >
<path d="M9.263960554329117 11.201674327011036 C66.60553934341057 12.166965249028738, 121.77425630668604 13.38437071315657, 198.67527057737772 9.812341988135826 M9.761679188030778 10.76720299682521 C69.29142918690867 8.773921536020373, 130.73290871327382 8.172660347303141, 200.50637444109876 10.280509510030534 M200.93099564338664 8.69497284556865 C169.72628961337952 35.952718139593465, 140.75691680395659 60.42423222820476, 100.15352545266052 101.09147548197964 M200.6782747980173 10.604952990944982 C176.11608208160447 33.014267007912146, 150.43419448735736 53.29166806071999, 99.2895381192198 100.88796781401955 M98.81269317093134 99.68581511615618 C152.2141963243257 98.80370971444184, 205.756966470422 100.49208067379884, 300.28744588843085 101.76261009484158 M100.26076095569503 100.49051911055875 C139.8286306439076 99.00285737414823, 179.40241216800908 99.26343531729798, 299.52538428438476 99.49807650379606 M301.2948304211486 101.54936131393367 C247.3085966014299 120.87458675723069, 193.23467021284418 142.48966775235493, 58.86895659871811 198.82707951706806 M299.8380427148199 100.23714010487419 C221.22711347615763 133.06229298375104, 143.57047183410154 165.3277713582099, 60.40759785189296 200.35581343955565 M58.37766562346831 198.6678080686944 C42.62034055899369 131.75631344243936, 26.56505775866788 63.718521963803546, 8.426400642009215 10.640853777132277 M59.758204308611774 200.22663614655934 C45.945497622717426 145.20117233102368, 29.676899134786538 88.42007455732343, 9.283694832832877 9.27698622870983" fill='none' stroke='#000' stroke-width='1' fill-weight='1' />
</g>
<g  >
<path d="M51.015051353279915 19.780745575914153 C48.541688844263454 65.41462030876914, 43.472557322594845 106.63605551828816, 28.112279144644916 200.59564596891363 M50.082231468814044 20.95889351112728 C43.05524440421581 88.21381515332958, 35.3517780084197 155.39385721709382, 30.664379774596153 199.3056281901754 M29.586963106453727 201.47314457546494 C136.98997993030486 188.8444068819058, 245.93989588140164 182.19422333061888, 298.8513270712889 180.88282935374994 M30.09872573101497 200.55574327972326 C89.30961741698844 196.91344235584722, 148.6703167710688 193.55402383523122, 300.24724507984035 179.37256862351947 M299.06292444005345 180.48585982560118 C290.5987098259995 123.12431530262961, 284.08908364044777 62.224028873004606, 280.5615243406389 30.66281183361626 M300.76846117118214 179.42904308300578 C293.3529315275595 136.68247291329996, 286.83740542914774 93.7614204277438, 279.5784053302246 30.6853077728822 M281.9849739764941 31.30730479797025 C252.33397321939378 69.18317505995667, 222.33942756999383 107.4535716276017, 168.6215633644826 181.34238274971256 M280.13709575898105 29.708508032619065 C247.10133055104203 77.39119895705865, 211.3464721948593 124.52026260552347, 169.77468451493343 179.91876043631834 M171.5011616588915 181.14491906104993 C133.63488238299382 131.8875562087747, 101.63513696812133 87.3818745375854, 49.751469434035194 20.691867569373734 M170.66494464894782 179.88982276356802 C129.45040124287968 127.63691723007041, 89.2948379477983 73.86513226538594, 49.65042959749706 19.58497434160296" fill='none' stroke='#ff0000' stroke-width='1' fill-weight='0' />
</g>
</svg>
