<?xml version="1.0"?>
<!-- Generated by SVGo -->
<svg width="280" height="160"
     xmlns="http://www.w3.org/2000/svg"
     xmlns:xlink="http://www.w3.org/1999/xlink">
<g  >
<path d="M21.046401784154824 20.048188705052254 C87.77506339376556 20.698908622217267, 153.35959347192184 20.842301872408136, 261.4332178452205 18.76822228385118 M20.588355497292746 19.65746398855173 C79.91488603177922 20.239548703830557, 140.54339111708393 20.105463015041394, 259.396882144905 20.63636650571264 M260.2365546570259 21.954389354324515 C259.5828626353746 50.07123401977767, 260.9822771700714 79.97565448350335, 261.4518623773819 140.27807081456766 M260.8596118730161 19.69009898918748 C259.5288814642908 58.82517923521956, 259.2983934106991 97.7219329073158, 259.3932621553168 139.28950177750073 M260.39531659037846 138.5040700716954 C181.03259754621106 139.96959713552775, 104.36387223576003 139.76271610542474, 18.338199430186297 140.10489777391504 M260.08732975000936 139.49702076718918 C206.646928072932 140.56292844286034, 153.68680908531243 141.6856843582075, 19.599081262573836 140.34938480599243 M19.693046018119663 139.80745613451046 C19.255310632362598 100.10023804275396, 19.647382676461604 58.223430467570715, 20.160964535383044 20.538547508822695 M19.198057829750848 140.4374230889822 C20.39749187343227 105.38791706365237, 19.091837226985803 68.67578516346214, 20.390908551347966 20.633064768124015" fill='none' stroke='#000' stroke-width='1' fill-weight='1' />
</g>
<g  >
<path d="M8.737178293518019 10.629469533162867 C30.090952512116807 11.321736799789539, 52.6210065643793 11.493245240471255, 78.83457022204969 10.177460112464528 M9.18127039793765 9.190836810356608 C34.71617951607586 9.714340726558328, 59.54604867571657 10.02121552711442, 79.27902846153393 10.285543229464619 M81.46737680285425 8.736030354099288 C79.34827451581471 24.825782209115065, 81.20583242764697 39.97520857394605, 81.55046077347865 78.23700929458789 M79.22611782996908 9.473144643887487 C80.43276286186395 34.27480336774673, 78.75228492728812 60.00335877363484, 80.10880170842894 80.61596751748922 M78.36838960900658 81.05106015628881 C63.32223456746625 80.05889990277302, 45.676699666617296 82.57702725282387, 8.345924682270944 81.84054823291721 M80.15023591789742 79.32630993408686 C60.03210307760606 79.27245655189715, 41.27492283341166 80.64316916469838, 10.874667264439756 79.37544951573611 M10.65943437433278 78.55402899561707 C11.3866102602785 64.45883231417625, 12.090808721129576 49.28289974352886, 9.957305361828517 9.75145843604411 M9.6135276107476 79.25965983574822 C10.117694819939935 60.88833188719111, 9.196592818138754 40.90105643757678, 10.638936486106081 10.20269620892129" fill='none' stroke-width='1' fill-weight='0' stroke='#ff0080' />
</g>
</svg>
